# xmcd CD database file
#
# Track frame offsets:
#	187
#	7087
#	19789
#	47854
#	61437
#	80907
#	94914
#	111607
#	124739
#	146639
#	159469
#	174167
#
# Disc length: 2384 seconds
#
# Revision: 3
# Processed by: cddbd v1.5.2PL0 Copyright (c) Steve Scherf et al.
# Submitted via: CDex 1.51
#
DISCID=a8094e0c
DTITLE=T-Bone Walker - ...Good Feelin'...
DYEAR=1900
DGENRE=Blues
TTITLE0=Good Feelin' (Introduction)
TTITLE1=Every Day I Have The Blues
TTITLE2=Woman You Must Be Crazy
TTITLE3=Long Lost Lover
TTITLE4=I Wonder Why
TTITLE5=Vacation
TTITLE6=Shake It Baby
TTITLE7=Poontang (Instrumental)
TTITLE8=Reconsider
TTITLE9=Sail On Little Girl
TTITLE10=When I Grow Up
TTITLE11=See You Next Time
EXTD=
EXTT0=
EXTT1=
EXTT2=
EXTT3=
EXTT4=
EXTT5=
EXTT6=
EXTT7=
EXTT8=
EXTT9=
EXTT10=
EXTT11=
PLAYORDER=
